<svg clip-rule="evenodd" fill-rule="evenodd" stroke-linejoin="round" stroke-miterlimit="2" viewBox="0 0 30 30" xmlns="http://www.w3.org/2000/svg" xmlns:xlink="http://www.w3.org/1999/xlink"><linearGradient id="a" gradientTransform="matrix(30 -30 30 30 0 30)" gradientUnits="userSpaceOnUse" x1="0" x2="1" y1="0" y2="0"><stop offset="0" stop-color="#2e27ad"/><stop offset="1" stop-color="#527fff"/></linearGradient><path d="m0 0h30v30h-30z" fill="url(#a)"/><path d="m20.912 22.819c0-.61-.461-1.07-1.072-1.07s-1.071.46-1.071 1.07c0 .611.46 1.072 1.071 1.072s1.072-.461 1.072-1.072zm-5.912-.214c-.62 0-1.125.481-1.125 1.073 0 .59.505 1.072 1.125 1.072s1.125-.482 1.125-1.072c0-.592-.505-1.073-1.125-1.073zm-4.886-.857c-.612 0-1.072.461-1.072 1.072 0 .61.46 1.071 1.072 1.071.61 0 1.071-.461 1.071-1.072 0-.61-.461-1.071-1.071-1.071zm.355-5.952h9.062l-3.192-2.378-1.101.907c-.138.113-.339.113-.477 0l-1.101-.906zm-.757-5.628v5.256l3.352-2.496zm9.904-.418h-9.233l4.616 3.8zm.672 5.674v-5.255l-3.353 2.759zm1.374 7.396v.02c0 .988-.814 1.801-1.802 1.801-.007 0-.013 0-.02 0s-.014 0-.021 0c-.987 0-1.8-.813-1.8-1.8 0-.007 0-.014 0-.021 0-.892.61-1.615 1.446-1.783v-1.492h-4.09v2.348c.855.168 1.5.903 1.5 1.783 0 1.006-.841 1.824-1.875 1.824s-1.875-.818-1.875-1.822c0-.881.646-1.617 1.5-1.785v-2.348h-4.136v1.491c.845.169 1.455.922 1.446 1.784v.02c0 .988-.813 1.801-1.801 1.801-.007 0-.013 0-.02 0s-.014 0-.021 0c-.988 0-1.801-.814-1.801-1.802 0-.006 0-.013 0-.019 0-.893.611-1.615 1.447-1.784v-1.866c0-.208.167-.375.375-.375h4.511v-2.25h-5.288c-.205 0-.375-.169-.375-.375v-6.795c0-.206.17-.375.375-.375h11.325c.206 0 .375.169.375.375v6.796c0 .206-.169.375-.375.375h-5.287v2.25h4.465c.207 0 .375.168.375.375v1.866c.845.168 1.456.922 1.446 1.783zm3.839-7.82c0 2.053-.724 4.372-1.937 6.206l-.626-.414c1.119-1.69 1.813-3.91 1.813-5.793 0-5.376-4.373-9.75-9.749-9.75-5.377.001-9.751 4.375-9.751 9.751 0 1.879.695 4.099 1.813 5.793l-.626.412c-1.212-1.837-1.937-4.158-1.937-6.205 0-5.79 4.71-10.5 10.499-10.5 5.79 0 10.501 4.71 10.501 10.499z" fill="#fff"/></svg>