<svg width="39" height="38" viewBox="0 0 39 38" fill="none" xmlns="http://www.w3.org/2000/svg">
<g id="Capa_1" clip-path="url(#clip0_72_116)">
<path id="Vector" d="M5.34835 -2.86903e-06L32.9843 -4.53019e-07C35.8462 -2.02827e-07 38.1663 2.31933 38.1663 5.18045L38.1663 32.8172C38.1663 35.679 35.8462 37.9999 32.9843 37.9999L5.34834 37.9999C2.48648 37.9999 0.166409 35.679 0.166409 32.8172L0.166412 5.18045C0.166412 2.31932 2.48648 -3.11923e-06 5.34835 -2.86903e-06ZM30.0141 11.2849C29.6593 10.83 29.1153 10.5635 28.5386 10.562L9.78883 10.562C9.21216 10.5635 8.66814 10.83 8.31411 11.2849C8.15974 11.4831 8.18868 11.7681 8.37868 11.9321C11.4714 14.5468 16.8789 19.1469 18.4813 20.5823C18.8316 20.9578 19.4202 20.9778 19.7957 20.6275C19.8113 20.6127 19.8269 20.5978 19.841 20.5823C21.4337 19.1469 26.8413 14.5468 29.9436 11.9321C30.1358 11.7696 30.167 11.4846 30.0141 11.2849ZM30.4164 24.4772L30.4164 13.772C30.4164 13.5887 30.308 13.4232 30.141 13.3474C29.9755 13.2695 29.7796 13.297 29.6415 13.4172C27.6191 15.1272 24.9517 17.3968 22.9441 19.1224C22.8379 19.2189 22.7785 19.3562 22.7815 19.4994C22.7867 19.6389 22.8528 19.7696 22.9611 19.8571C24.8285 21.3571 27.6413 23.407 29.6734 24.8743C29.7543 24.93 29.8508 24.9597 29.9488 24.9597C30.0252 24.9567 30.0995 24.9359 30.1663 24.8996C30.3206 24.8149 30.4164 24.6531 30.4164 24.4772ZM8.41653 26.8374C8.7713 27.2181 9.26782 27.4356 9.78883 27.4371L28.5386 27.4371C29.0597 27.4356 29.5562 27.2181 29.9109 26.8374C30.0052 26.7379 30.0505 26.6021 30.0341 26.467C30.0223 26.3335 29.9503 26.2117 29.8389 26.1368C27.8788 24.7296 24.2562 22.1097 22.1061 20.3618C21.931 20.2164 21.6764 20.2164 21.5012 20.3618C21.0812 20.727 20.7264 21.0395 20.4763 21.2643C19.743 21.9642 18.5897 21.9642 17.8564 21.2643L16.8314 20.3618C16.6563 20.2164 16.4017 20.2164 16.2265 20.3618C14.066 22.1119 10.4538 24.7318 8.49372 26.1368C8.38091 26.211 8.30892 26.3327 8.29853 26.467C8.28146 26.6014 8.3245 26.7372 8.41653 26.8374ZM7.9163 24.4772C7.9163 24.6531 8.01204 24.8149 8.16642 24.8996C8.23322 24.9307 8.30521 24.9471 8.37868 24.9471C8.47739 24.9471 8.57313 24.9174 8.65403 24.8617C10.6861 23.3944 13.499 21.3393 15.3663 19.8445C15.4755 19.7577 15.5393 19.6263 15.5415 19.4868C15.5437 19.3473 15.4844 19.2137 15.379 19.1224C13.3788 17.3968 10.7039 15.122 8.68149 13.4172C8.54345 13.2962 8.34677 13.2688 8.18126 13.3474C8.01501 13.4231 7.9074 13.5887 7.90666 13.772L7.9163 24.4772Z" fill="#00BF89"/>
</g>
<defs>
<clipPath id="clip0_72_116">
<rect width="37.9998" height="37.9999" fill="white" transform="matrix(-1 -8.74228e-08 -8.74228e-08 1 38.1663 0)"/>
</clipPath>
</defs>
</svg>
