<svg width="39" height="38" viewBox="0 0 39 38" fill="none" xmlns="http://www.w3.org/2000/svg">
<g id="github 1" clip-path="url(#clip0_72_110)">
<g id="Layer 2">
<g id="github">
<path id="icon" d="M33.6516 0H6.01529C4.641 0 3.32299 0.545938 2.35121 1.51771C1.37943 2.48949 0.833496 3.8075 0.833496 5.1818L0.833496 32.8181C0.833496 34.1924 1.37943 35.5104 2.35121 36.4821C3.32299 37.4539 4.641 37.9999 6.01529 37.9999H33.6516C35.0258 37.9999 36.3439 37.4539 37.3156 36.4821C38.2874 35.5104 38.8333 34.1924 38.8333 32.8181V5.1818C38.8333 3.8075 38.2874 2.48949 37.3156 1.51771C36.3439 0.545938 35.0258 0 33.6516 0ZM23.5578 30.3459C22.949 30.4625 22.7417 30.0955 22.7417 29.791C22.7417 29.411 22.7568 28.1566 22.7568 26.5956C22.7568 25.5009 22.3703 24.7863 21.9558 24.4365C24.5964 24.1493 27.3729 23.1626 27.3729 18.6804C27.3905 17.5167 26.9536 16.3921 26.1552 15.5454C26.274 15.2496 26.6756 14.0621 26.0365 12.4557C26.0365 12.4557 25.0433 12.1427 22.7978 13.6519C20.8534 13.1279 18.8048 13.1279 16.8604 13.6519C14.589 12.1405 13.5937 12.4557 13.5937 12.4557C12.9459 14.0664 13.3562 15.2539 13.4792 15.5454C12.6789 16.3895 12.2404 17.513 12.2572 18.6761C12.2572 23.1454 15.0295 24.1493 17.6549 24.4408C17.2244 24.8535 16.9575 25.4079 16.9035 26.0018C16.2234 26.2998 14.5026 26.8158 13.449 25.0324C13.449 25.0324 12.8229 23.9097 11.6311 23.8298C11.6311 23.8298 10.4716 23.8147 11.5469 24.538C11.5469 24.538 12.3285 24.8985 12.8682 26.2436C12.8682 26.2436 13.5656 28.5128 16.869 27.8111C16.869 28.7827 16.882 29.5168 16.882 29.7953C16.882 30.0739 16.666 30.4647 16.0723 30.3545C11.3612 28.8173 7.95847 24.4451 7.95847 19.2892C7.95847 12.8444 13.272 7.6302 19.8334 7.6302C26.3949 7.6302 31.7084 12.8552 31.7084 19.3C31.7084 24.4365 28.31 28.813 23.5578 30.3459Z" fill="#00BF89"/>
</g>
</g>
</g>
<defs>
<clipPath id="clip0_72_110">
<rect width="37.9999" height="37.9999" fill="white" transform="translate(0.833496)"/>
</clipPath>
</defs>
</svg>
