<svg width="39" height="38" viewBox="0 0 39 38" fill="none" xmlns="http://www.w3.org/2000/svg">
<g id="Capa_1" clip-path="url(#clip0_18_18)">
<path id="Vector" d="M33.318 0H5.68202C2.82016 0 0.500092 2.32007 0.500092 5.18193V32.8179C0.500092 35.6798 2.82016 37.9999 5.68202 37.9999H33.318C36.1799 37.9999 38.4999 35.6798 38.4999 32.8179V5.18193C38.4999 2.32007 36.1799 0 33.318 0ZM13.9789 28.7225H9.35139V14.8014H13.9789V28.7225ZM11.6655 12.8999H11.6351C10.0824 12.8999 9.07826 11.8312 9.07826 10.4952C9.07826 9.1593 10.1129 8.08981 11.6959 8.08981C13.279 8.08981 14.2528 9.12887 14.2832 10.4952C14.2832 11.8312 13.279 12.8999 11.6655 12.8999ZM30.664 28.7225H26.0372V21.2747C26.0372 19.4029 25.367 18.1264 23.6934 18.1264C22.4146 18.1264 21.6538 18.9881 21.3191 19.8193C21.1967 20.1162 21.167 20.5318 21.167 20.9482V28.7225H16.5394C16.5394 28.7225 16.6003 16.1069 16.5394 14.8014H21.167V16.7719C21.7815 15.8234 22.8822 14.4741 25.3366 14.4741C28.381 14.4741 30.664 16.4639 30.664 20.7403V28.7225Z" fill="#00BF89"/>
</g>
<defs>
<clipPath id="clip0_18_18">
<rect width="37.9999" height="37.9999" fill="white" transform="translate(0.500092)"/>
</clipPath>
</defs>
</svg>
