<svg width="27" height="27" viewBox="0 0 27 27" fill="none" xmlns="http://www.w3.org/2000/svg">
<g id="fi-rr-smartphone" clip-path="url(#clip0_1_115)">
<path id="Vector" d="M16.8751 0H10.1251C8.63379 0.00178634 7.20409 0.594992 6.14958 1.6495C5.09508 2.704 4.50187 4.13371 4.50008 5.625V21.375C4.50187 22.8663 5.09508 24.296 6.14958 25.3505C7.20409 26.405 8.63379 26.9982 10.1251 27H16.8751C18.3664 26.9982 19.7961 26.405 20.8506 25.3505C21.9051 24.296 22.4983 22.8663 22.5001 21.375V5.625C22.4983 4.13371 21.9051 2.704 20.8506 1.6495C19.7961 0.594992 18.3664 0.00178634 16.8751 0V0ZM10.1251 2.25H16.8751C17.7702 2.25 18.6286 2.60558 19.2616 3.23851C19.8945 3.87145 20.2501 4.72989 20.2501 5.625V18H6.75008V5.625C6.75008 4.72989 7.10566 3.87145 7.7386 3.23851C8.37153 2.60558 9.22998 2.25 10.1251 2.25ZM16.8751 24.75H10.1251C9.22998 24.75 8.37153 24.3944 7.7386 23.7615C7.10566 23.1286 6.75008 22.2701 6.75008 21.375V20.25H20.2501V21.375C20.2501 22.2701 19.8945 23.1286 19.2616 23.7615C18.6286 24.3944 17.7702 24.75 16.8751 24.75Z" fill="#00BF89"/>
<path id="Vector_2" d="M13.5002 23.6243C14.1215 23.6243 14.6252 23.1207 14.6252 22.4993C14.6252 21.878 14.1215 21.3743 13.5002 21.3743C12.8789 21.3743 12.3752 21.878 12.3752 22.4993C12.3752 23.1207 12.8789 23.6243 13.5002 23.6243Z" fill="#00BF89"/>
</g>
<defs>
<clipPath id="clip0_1_115">
<rect width="27" height="27" fill="white"/>
</clipPath>
</defs>
</svg>
